<?xml version="1.0" encoding="UTF-8"?><svg id="Layer_2" xmlns="http://www.w3.org/2000/svg" viewBox="0 0 415 415"><defs><style>.cls-1{opacity:.09;}.cls-2{fill:#ff7174;}.cls-2,.cls-3,.cls-4{stroke-width:0px;}.cls-3{fill:#fff;}.cls-4{fill:#ff0074;}</style></defs><g id="Layer_1-2"><rect class="cls-3" width="415" height="415" rx="47.41" ry="47.41"/><g class="cls-1"><path class="cls-2" d="m77.88,178.64l-11.32-14.35c-2.21-2.8-4.42-5.6-7.34-8.4-2.65-2.45-5.46-4.21-8.99-5.97-2.81-1.75-5.95-2.11-9.25-1.78-5.01-.02-9.19,1.01-13.43,3.78-3.79,2.43-7.58,4.85-11.98,8.32-2.13,1.68-4.09,3.56-5.89,5.59-4.3,4.86-7.27,10.61-8.19,16.24-.41,2.53-.45,4.97.05,7.41.51,6.98,2.78,12.57,5.93,17.46,3.43,5.25,7.57,10.49,10.72,15.39l1.11,1.4c11.82,16.79,20.49,28.68,34.19,45.13,5.09,6.46,10.09,12.79,14.95,19.01,6.26,8,17.99,10.42,30.13,6.48,2.24-.73,4.49-1.49,6.72-2.28,22.18-7.85,33.9-33.49,22.52-48.23l-5.23-6.77-44.69-58.43Z"/><path class="cls-2" d="m249.35,43.32l-11.32-14.35c-1.69-2.15-3.39-4.3-5.41-6.45-1.25-1.33-2.81-2.35-4.4-3.33-2.32-1.42-4.32-2.93-6.97-4.25-2.81-1.76-5.51-2.46-9.25-1.78-4.57-.37-9.63,1.36-13.42,3.78-3.35,2.08-7.59,4.85-11.98,8.32-3.28,2.59-6.18,5.66-8.51,8.9-2.01,2.79-3.48,5.82-4.52,8.85-1.44,4.22-2.09,8.06-.99,11.49.51,6.98,2.78,12.57,5.93,17.46,3.43,5.25,7.13,10.84,10.72,15.39,15.69,21.69,29.89,40.58,46.18,61.23h0c12.32,15.61,41.82,9.22,55-12.04.94-1.52,1.87-3.04,2.79-4.56,6.56-10.88,6.61-22.81.45-30.85l-44.29-57.83Z"/><path class="cls-2" d="m18.39,362.48c22.27,36.38,69.92,43.48,108.85,40.68,36.39-2.61,72.73-13.96,104.74-31.33,68.4-37.13,118.79-97.52,149.23-168.68,16.59-38.78,27.05-80.34,32.82-122.06,1.95-14.12-9.37-29.11-23.82-30.19-14.94-1.12-28.1,8.76-30.19,23.82-2.28,16.49-5.3,32.87-9.23,49.05,1.34-5.49-.67,2.5-.79,2.94-.43,1.61-.87,3.22-1.32,4.82-1.12,4.01-2.29,8.01-3.53,11.98-2.46,7.94-5.15,15.82-8.09,23.6-6.01,15.94-13.16,31.31-21.05,46.4-2.22,4.24,3.19-5.44-.81,1.42-.83,1.43-1.65,2.87-2.49,4.29-2.1,3.56-4.27,7.08-6.5,10.57-4.68,7.32-9.65,14.45-14.91,21.37-4.72,6.22-9.67,12.27-14.85,18.12-1.35,1.52-2.72,3.02-4.1,4.52-.96,1.04-4.79,4.95-.83.95-3.15,3.19-6.36,6.32-9.64,9.37-11.95,11.09-24.82,21.17-38.48,30.07-1.7,1.11-3.43,2.18-5.15,3.28-4.54,2.9-.94.62,0,.06-3.5,2.06-7.06,4.02-10.65,5.91-7.53,3.96-15.25,7.55-23.13,10.75-7.12,2.9-14.37,5.34-21.69,7.68-7.37,2.35,3.19-.72-1.35.43-1.96.49-3.9,1.01-5.87,1.47-4.71,1.11-9.45,2.08-14.22,2.9-8.77,1.5-17.63,2.5-26.51,2.93-1.59.08-3.19.15-4.78.18,5.8-.1-2.64-.17-3.78-.23-4.42-.23-8.82-.67-13.19-1.35-1.98-.31-3.93-.79-5.9-1.1-1.88-.42-1.56-.32.95.28-1.52-.42-3.03-.88-4.53-1.37-3.68-1.23-7.26-2.72-10.74-4.45,5.61,2.78-.78-.67-1.65-1.28-1.86-1.3-3.55-2.78-5.31-4.21,4.3,3.5,1.38,1.46.49.23-1.8-2.52-3.7-4.84-5.33-7.5-7.45-12.18-27.98-13.32-38.19-4.5-12.25,10.59-12.49,25.14-4.5,38.19h0Z"/></g><path class="cls-4" d="m109.36,236.41l-.68,52.24-.34,28.07v5.33c-.34,2.13-.34,3.91,0,6.04.34,2.49,1.02,4.98,1.02,7.11.34,2.84.68,5.33,1.7,7.82l1.02,2.13c0,.71.34,1.42.68,2.13,2.05,3.2,3.75,5.33,6.48,7.11,5.12,2.49,10.92,3.2,17.4,1.78,3.75-.71,6.82-1.78,8.87-3.91,2.39-1.78,3.75-3.91,4.78-6.4,1.02-2.84,2.05-5.33,2.39-7.82.68-2.84,1.02-4.98,1.02-6.4v-3.55l.68-83.87.05-6.61c-15.84-3.53-31.04-9.46-44.84-17.9-.05,5.71-.12,11.31-.24,16.68Z"/><path class="cls-4" d="m155.41,90.42v-11.13c0-2.17,0-4.34-.34-6.79-.34-2.17-1.02-4.07-2.05-6.25-.68-1.9-2.05-3.26-3.75-4.34-2.39-1.9-4.78-2.99-7.85-3.26-2.73-.27-5.46-.54-8.87-.54-1.65,0-3.3.16-4.92.45-3.89.7-7.48,2.33-10.05,4.67-1.15,1.05-2.09,2.21-2.77,3.56-2.39,3.53-3.41,7.06-3.75,10.59-.34,3.8-.34,7.87-.68,11.4v1.09c-.68,12.49-1.02,21.45-.68,34.48,0,5.01,0,9.92-.03,14.73-.03,6.19,4.67,11.77,11.96,14.47,1.35.5,2.71.98,4.07,1.45,13.57,4.62,28.85-3.22,28.97-14.57l.06-5.21.68-44.8Z"/><path class="cls-4" d="m288.45,90.42v-11.13c0-1.67,0-3.33-.15-5.12-.1-1.1-.45-2.18-.85-3.25-.58-1.55-.96-3.03-1.73-4.66-.68-1.9-1.7-3.26-3.75-4.34-2.05-1.9-5.12-2.99-7.84-3.26-2.39-.27-5.46-.54-8.87-.54-2.55,0-5.09.38-7.43,1.04-2.01.57-3.86,1.47-5.5,2.53-2.28,1.47-4.04,3.06-4.81,5.12-2.39,3.53-3.41,7.06-3.75,10.59-.34,3.8-.68,7.87-.68,11.4-.68,16.29-1.02,30.68-1.02,46.7h0c0,12.11,16.52,20.19,30.84,15,1.02-.37,2.04-.75,3.05-1.13,7.24-2.73,11.77-8.41,11.86-14.58l.64-44.36Z"/><path class="cls-4" d="m242.06,234.09v9.78l-.34,44.78-.34,28.07c0,2.13,0,3.91-.68,5.33,0,2.13,0,3.91.68,6.04.34,2.49.68,4.98.68,7.11.34,2.84.68,5.33,1.71,7.82.34.71.68,1.42.68,2.13.34.71.68,1.42,1.36,2.13,1.36,3.2,3.41,5.33,6.14,7.11,5.12,2.49,10.92,3.2,17.4,1.78,3.75-.71,6.82-1.78,8.87-3.91,2.39-1.78,3.75-3.91,4.78-6.4,1.02-2.84,2.05-5.33,2.39-7.82.68-2.84,1.02-4.98,1.02-6.4v-3.55l1.26-113.48c-14.46,8.18-29.71,14.82-45.61,19.49Z"/><path class="cls-4" d="m57.6,155.87c-3.08,25.79,17.03,47.17,36.69,60.52,18.38,12.48,40.04,20.77,61.9,24.54,46.72,8.06,93.59-1.8,134.99-24.34,22.56-12.28,43.24-28.2,61.75-45.98,6.26-6.01,6.5-17.45,0-23.42-6.72-6.17-16.74-6.41-23.42,0-7.31,7.02-14.94,13.71-22.92,19.97,2.71-2.12-1.26.94-1.48,1.11-.81.61-1.63,1.21-2.45,1.81-2.05,1.5-4.12,2.96-6.21,4.4-4.18,2.87-8.43,5.62-12.77,8.23-8.89,5.36-18.1,10-27.57,14.24-2.66,1.19,3.58-1.4-.92.37-.94.37-1.87.75-2.81,1.11-2.35.91-4.71,1.78-7.09,2.6-5,1.73-10.07,3.27-15.19,4.59-4.61,1.19-9.25,2.22-13.94,3.06-1.22.22-2.44.42-3.66.61-.85.13-4.16.56-.75.14-2.71.34-5.42.62-8.14.84-9.9.79-19.86.76-29.75-.14-1.23-.11-2.46-.25-3.7-.38-3.27-.33-.68-.06-.02.03-2.45-.34-4.89-.74-7.32-1.19-5.09-.95-10.14-2.14-15.12-3.59-4.5-1.3-8.89-2.87-13.27-4.51-4.41-1.66,1.8.86-.81-.31-1.12-.5-2.25-.99-3.36-1.51-2.67-1.24-5.31-2.57-7.9-3.98-4.76-2.59-9.37-5.46-13.78-8.6-.79-.56-1.58-1.13-2.35-1.72,2.81,2.14-1.2-1.08-1.72-1.54-2.02-1.78-3.96-3.65-5.79-5.62-.83-.89-1.58-1.86-2.41-2.75-.74-.91-.63-.74.35.49-.57-.77-1.12-1.56-1.64-2.36-1.3-1.98-2.44-4.04-3.46-6.18,1.63,3.45-.12-.62-.31-1.23-.4-1.32-.65-2.67-.95-4.01.73,3.29.11,1.22.15.3.09-1.88.06-3.71.28-5.6,1.03-8.63-8.35-16.93-16.56-16.56-9.85.44-15.46,7.31-16.56,16.56h0Z"/></g></svg>