<?xml version="1.0" encoding="UTF-8"?><svg id="Layer_2" xmlns="http://www.w3.org/2000/svg" viewBox="0 0 1364.94 435.27"><defs><style>.cls-1{opacity:.09;}.cls-2{fill:#ff7174;}.cls-2,.cls-3,.cls-4{stroke-width:0px;}.cls-3{fill:#fff;}.cls-4{fill:#ff0074;}</style></defs><g id="Layer_1-2"><path class="cls-4" d="m605.43,76.71c0,1.64-.21,3.28-.41,4.51-.2,1.64-1.03,2.87-2.67,4.31-.82.61-2.26,1.43-3.69,2.05-1.64.41-3.49.62-5.54.82-1.64.41-3.69.41-5.54.41h-9.23l-42.87.21v.62l-.2,33.43c2.05,0,4.72,0,8.41-.21,10.87,0,18.46,0,28.92.21h1.23c3.08,0,6.15.21,9.43.21,3.08.21,6.15.62,9.02,1.64,2.26.82,4.1,2.05,5.33,3.9,1.44,1.64,2.26,3.49,2.26,5.54,0,1.64,0,3.08-.41,4.72-.21,1.23-1.23,2.67-2.67,4.1-1.03.82-2.05,1.43-3.9,1.85-1.44.41-3.28,1.03-5.13,1.23-1.85.21-3.69.41-5.74.41h-9.43l-37.74.21-.62,47.58v1.64c0,1.23-.21,2.46-.41,3.9-.41,1.44-.82,3.08-1.44,4.31-.82,1.64-1.64,3.08-2.67,3.9-1.44,1.03-3.28,1.85-5.54,2.26-3.69.82-7.18.41-10.46-1.23-1.23-.82-2.67-2.05-3.49-3.9-.21-.41-.41-1.03-.41-1.23l-.62-1.23c-.82-1.43-1.03-2.87-1.23-4.31,0-1.23-.21-2.67-.41-4.1-.21-1.23-.21-2.05,0-3.28v-3.28l.2-16,.21-29.53c.21-8.61.21-17.84.21-27.28-.21-9.84,0-16.61.41-25.64v-1.02c.21-2.87.21-5.54.61-8.2.21-2.87.82-5.54,2.05-8,.82-2.05,2.26-3.9,4.1-4.92,2.05-1.23,4.31-1.85,6.56-1.85.82,0,1.64,0,2.67.21v-.21c9.64,0,10.46,0,21.33-.21,11.08-.2,21.74-.2,32.41,0h1.03c3.08.21,6.15.21,9.43.41,3.08,0,6.15.82,9.02,1.85,2.26.61,4.1,1.85,5.33,3.48,1.44,1.85,2.05,3.69,2.26,5.74Z"/><path class="cls-4" d="m641.11,189.11c-.41,8.2-1.23,20.71-12.92,20.1-8.41-.41-11.9-7.59-12.31-19.9-.21-12.72-.61-33.84-.41-46.76.2-7.59-1.44-23.38,3.69-30.35,3.69-4.51,16-4.72,19.48.41,2.05,3.28,2.46,12.92,2.46,19.69,0,15.18.62,39.99,0,56.81Zm-23.59-108.5c-2.26-11.69,9.23-18.25,18.87-11.28,9.43,6.77,7.79,18.05-3.08,21.54-8.41,2.26-14.56-2.46-15.79-10.25Z"/><path class="cls-4" d="m657.93,136.81c0-6.36-.82-13.95,1.64-19.69,2.26-5.13,8-7.59,12.92-6.36,10.05,1.64,9.85,9.03,10.26,16.41,5.33-9.64,17.84-12.1,22.36-12.31,10.46,0,21.53,4.72,28.3,12.92,7.59,9.64,7.38,21.74,8,33.64.62,8.61.62,17.43,0,26.05-.41,6.97,1.03,20.51-6.97,22.15-11.49,2.46-13.95-2.67-15.38-10.25-1.23-6.15-1.23-16.41-1.44-22.77,0-5.13-.41-11.89-.21-17.43,0-12.72-7.18-19.9-18.66-18.87-8.82,1.02-16.41,7.38-16.2,16.61.21,6.97-.41,11.48-.21,20.3,0,9.02.62,20.1-1.85,26.46-2.05,6.56-7.79,9.43-14.77,5.74-5.95-3.49-6.56-11.9-6.97-17.85-.82-9.02-.82-16.2-.82-25.23v-29.53Z"/><path class="cls-4" d="m835.13,81.02c.21,13.74,0,20.31,0,26.05v62.97c0,44.3,2.26,41.43-31.58,41.43-29.33,0-47.58-13.54-48.61-43.69-.82-26.25,15.59-44.51,43.89-44.1h11.28v-36.71c.2-8.61-1.44-17.64,8.61-20.3,10.25-2.87,16.41,4.72,16.41,14.36Zm-36.51,106.04c5.95.41,11.49-1.03,11.49-1.03v-37.94c-9.43-1.64-16.82-3.28-24.61,2.67-8.41,6.56-8.41,21.54-2.46,29.74,2.87,3.9,8.2,6.15,15.59,6.56Z"/><path class="cls-4" d="m236.23,306.93c6.89,7.18,10.24,15.59,11.81,25.84,1.97,13.95,10.43,24,13.39,37.33,1.38,6.36-.79,13.33-7.48,14.56-8.07,1.64-13.78-7.38-17.33-13.33-6.1,8.2-12.8,12.51-22.64,13.95-8.47,1.03-15.55.62-24.22-1.85-22.44-6.15-28.94-31.79-23.23-54.15,3.74-14.77,11.42-23.79,21.07-28.71,15.95-8.41,35.24-7.18,48.63,6.36Zm-46.07,48.81c2.56,3.9,9.65,6.77,16.54,7.18,15.75,1.03,24.22-22.35,15.75-36.51-6.1-10.46-22.44-9.43-29.93-1.85-7.48,7.38-8.27,22.36-2.36,31.17Z"/><path class="cls-4" d="m355.15,338.93c.2,13.94-5.91,27.28-20.28,33.84-10.83,4.72-22.64,6.77-35.24,7.59v37.53c0,1.64-.59,3.08-.59,4.31-.39,2.67-1.18,4.72-2.17,7.18-.99,1.64-1.97,3.08-3.35,4.31-3.15,1.64-6.3,2.05-9.84,1.03-2.17-.21-3.74-.82-5.12-2.05-.98-1.03-1.97-2.26-2.56-3.9-.59-1.64-.99-3.07-1.38-4.72-.2-1.23-.39-2.67-.39-3.9v-114.24c0-1.64.2-3.49.39-5.33.2-1.64.59-3.28,1.18-4.92,2.36-6.77,10.43-8.82,19.69-8.61,12.8.41,27.76,4.92,33.86,7.59,15.16,6.77,25.79,25.64,25.79,44.3Zm-50.6-22.36c-.79-.21-2.76-.21-4.73-.21,0,8.61.2,16.41,0,25.64v13.74c12.21-.82,28.15-3.28,29.93-16.82,1.97-15.38-12.4-20.51-25.2-22.36Z"/><path class="cls-4" d="m448.48,338.93c.2,13.94-5.91,27.28-20.28,33.84-10.83,4.72-22.64,6.77-35.24,7.59v37.53c0,1.64-.59,3.08-.59,4.31-.39,2.67-1.18,4.72-2.17,7.18-.99,1.64-1.97,3.08-3.35,4.31-3.15,1.64-6.3,2.05-9.84,1.03-2.17-.21-3.74-.82-5.12-2.05-.98-1.03-1.97-2.26-2.56-3.9-.59-1.64-.99-3.07-1.38-4.72-.2-1.23-.39-2.67-.39-3.9v-114.24c0-1.64.2-3.49.39-5.33.2-1.64.59-3.28,1.18-4.92,2.36-6.77,10.43-8.82,19.69-8.61,12.8.41,27.76,4.92,33.86,7.59,15.16,6.77,25.79,25.64,25.79,44.3Zm-50.6-22.36c-.79-.21-2.76-.21-4.73-.21,0,8.61.2,16.41,0,25.64v13.74c12.21-.82,28.15-3.28,29.93-16.82,1.97-15.38-12.4-20.51-25.2-22.36Z"/><path class="cls-4" d="m485.69,366c-.39,8.2-1.18,20.71-12.4,20.1-8.07-.41-11.42-7.59-11.81-19.9-.2-12.72-.59-33.84-.39-46.76.2-7.59-1.38-23.38,3.54-30.35,3.54-4.51,15.36-4.72,18.7.41,1.97,3.28,2.36,12.92,2.36,19.69,0,15.18.59,39.99,0,56.81Zm-22.64-108.5c-2.17-11.69,8.86-18.25,18.11-11.28,9.06,6.77,7.48,18.05-2.95,21.54-8.07,2.26-13.98-2.46-15.16-10.25Z"/><path class="cls-4" d="m501.83,313.7c0-6.36-.79-13.95,1.57-19.69,2.17-5.13,7.68-7.59,12.4-6.36,9.65,1.64,9.45,9.03,9.85,16.41,5.12-9.64,17.13-12.1,21.46-12.31,10.04,0,20.67,4.72,27.17,12.92,7.28,9.64,7.09,21.74,7.68,33.64.59,8.61.59,17.43,0,26.05-.39,6.97.98,20.51-6.69,22.15-11.02,2.46-13.39-2.67-14.77-10.25-1.18-6.15-1.18-16.41-1.38-22.77,0-5.13-.39-11.89-.2-17.43,0-12.72-6.89-19.9-17.92-18.87-8.47,1.02-15.75,7.38-15.55,16.61.2,6.97-.39,11.48-.2,20.3,0,9.02.59,20.1-1.77,26.46-1.97,6.56-7.48,9.43-14.18,5.74-5.71-3.49-6.3-11.9-6.69-17.85-.79-9.02-.79-16.2-.79-25.23v-29.53Z"/><path class="cls-4" d="m677.06,366.82c0,6.77-7.09,11.89-12.21,14.15-7.48,3.48-17.92,5.54-28.35,5.13-14.18-.62-28.35-5.54-35.64-17.64-6.69-11.89-7.68-28.1-5.12-41.02,2.95-15.79,10.24-25.43,19.88-31.38,11.62-6.97,27.76-7.18,40.95-1.03,8.86,4.1,16.34,11.08,20.08,20.92,1.97,4.92,2.95,15.18.99,21.13-3.35,9.85-8.86,10.05-23.23,10.67-12.6.62-21.46,0-36.62-.41-1.57,11.08,10.04,15.38,19.69,16.2,8.86.62,16.74-2.05,25.4-4.72,6.1-1.85,14.18-1.23,14.18,8Zm-30.52-54.35c-4.13-1.85-9.06-1.44-13.19-.21-4.13,1.02-6.89,2.87-9.65,6.15-.79.82-6.3,9.64-4.13,9.64h38.59c-.2-3.9-1.18-6.15-3.74-9.03-2.36-2.87-4.92-5.13-7.88-6.56Z"/><path class="cls-4" d="m702.65,337.08c-10.63-8.41-12.21-21.94-5.51-34.46,7.28-13.13,25.6-16.82,39.18-14.36,9.06,1.64,20.48,5.33,23.82,16.2,2.17,7.18-3.15,13.33-10.24,12.1-7.68-1.43-13.39-8-21.46-8-11.81-.41-16.93,11.08-5.91,17.23,10.24,5.54,24.41,5.33,33.47,13.13,17.52,14.56,6.3,42.86-14.77,47.58-15.16,3.28-36.62.21-47.25-12.51-7.28-9.02.2-24.82,10.63-17.84,8.66,5.95,23.82,12.31,31.5,7.18,5.71-3.9,5.71-9.84,1.97-12.51-10.04-6.56-25.59-6.15-35.44-13.74Z"/><path class="cls-4" d="m788.5,337.08c-10.63-8.41-12.21-21.94-5.51-34.46,7.28-13.13,25.6-16.82,39.18-14.36,9.06,1.64,20.48,5.33,23.82,16.2,2.17,7.18-3.15,13.33-10.24,12.1-7.68-1.43-13.39-8-21.46-8-11.81-.41-16.93,11.08-5.91,17.23,10.24,5.54,24.41,5.33,33.47,13.13,17.52,14.56,6.3,42.86-14.77,47.58-15.16,3.28-36.62.21-47.25-12.51-7.28-9.02.2-24.82,10.63-17.84,8.66,5.95,23.82,12.31,31.5,7.18,5.71-3.9,5.71-9.84,1.97-12.51-10.04-6.56-25.59-6.15-35.44-13.74Z"/><path class="cls-4" d="m34.18,311.89l-.45,34.29-.22,18.43v3.5c-.22,1.4-.22,2.57,0,3.97.22,1.64.67,3.27.67,4.67.22,1.87.45,3.5,1.12,5.13l.67,1.4c0,.47.22.93.45,1.4,1.34,2.1,2.46,3.5,4.25,4.67,3.36,1.63,7.17,2.1,11.42,1.17,2.46-.47,4.48-1.17,5.82-2.57,1.57-1.17,2.46-2.57,3.14-4.2.67-1.87,1.34-3.5,1.57-5.13.45-1.87.67-3.27.67-4.2v-2.33l.45-55.06.04-4.34c-10.4-2.31-20.38-6.21-29.44-11.75-.03,3.75-.08,7.43-.16,10.95Z"/><path class="cls-4" d="m64.42,216.05v-7.31c0-1.42,0-2.85-.22-4.45-.22-1.43-.67-2.67-1.34-4.1-.45-1.25-1.34-2.14-2.46-2.85-1.57-1.25-3.14-1.96-5.15-2.14-1.79-.18-3.58-.36-5.82-.36-1.08,0-2.17.1-3.23.3-2.56.46-4.91,1.53-6.6,3.07-.76.69-1.37,1.45-1.82,2.34-1.57,2.32-2.24,4.63-2.46,6.95-.22,2.5-.22,5.17-.45,7.49v.71c-.45,8.2-.67,14.08-.45,22.63,0,3.29,0,6.51-.02,9.67-.02,4.06,3.06,7.73,7.85,9.5.89.33,1.78.64,2.68.95,8.91,3.03,18.94-2.11,19.02-9.56l.04-3.42.45-29.41Z"/><path class="cls-4" d="m151.76,216.05v-7.31c0-1.09,0-2.19-.1-3.36-.06-.73-.3-1.43-.56-2.13-.38-1.02-.63-1.99-1.13-3.06-.45-1.25-1.12-2.14-2.46-2.85-1.34-1.25-3.36-1.96-5.15-2.14-1.57-.18-3.58-.36-5.82-.36-1.67,0-3.34.25-4.88.68-1.32.38-2.53.96-3.61,1.66-1.5.97-2.65,2.01-3.16,3.36-1.57,2.32-2.24,4.63-2.46,6.95-.22,2.5-.45,5.17-.45,7.49-.45,10.69-.67,20.14-.67,30.66h0c0,7.95,10.84,13.25,20.25,9.85.67-.24,1.34-.49,2.01-.74,4.75-1.79,7.72-5.52,7.78-9.57l.42-29.12Z"/><path class="cls-4" d="m121.3,310.37v6.42l-.22,29.4-.22,18.43c0,1.4,0,2.57-.45,3.5,0,1.4,0,2.57.45,3.97.22,1.64.45,3.27.45,4.67.22,1.87.45,3.5,1.12,5.13.22.47.45.93.45,1.4.22.47.45.93.9,1.4.9,2.1,2.24,3.5,4.03,4.67,3.36,1.63,7.17,2.1,11.42,1.17,2.46-.47,4.48-1.17,5.82-2.57,1.57-1.17,2.46-2.57,3.14-4.2.67-1.87,1.34-3.5,1.57-5.13.45-1.87.67-3.27.67-4.2v-2.33l.83-74.5c-9.49,5.37-19.51,9.73-29.94,12.79Z"/><path class="cls-4" d="m.21,259.02c-2.02,16.93,11.18,30.97,24.09,39.73,12.07,8.19,26.29,13.64,40.64,16.11,30.67,5.29,61.44-1.18,88.62-15.98,14.81-8.06,28.39-18.52,40.54-30.18,4.11-3.95,4.27-11.46,0-15.38-4.41-4.05-10.99-4.21-15.38,0-4.8,4.61-9.81,9-15.05,13.11,1.78-1.39-.83.62-.97.73-.53.4-1.07.79-1.61,1.19-1.34.98-2.7,1.94-4.07,2.89-2.74,1.88-5.54,3.69-8.38,5.4-5.83,3.52-11.89,6.57-18.1,9.35-1.75.78,2.35-.92-.61.25-.62.24-1.23.49-1.85.73-1.54.6-3.09,1.17-4.66,1.71-3.28,1.14-6.61,2.15-9.97,3.02-3.02.78-6.07,1.46-9.15,2.01-.8.14-1.6.28-2.41.4-.56.09-2.73.37-.49.09-1.78.22-3.56.41-5.35.55-6.5.52-13.04.5-19.53-.09-.81-.07-1.62-.17-2.43-.25-2.14-.22-.45-.04-.01.02-1.61-.22-3.21-.49-4.81-.78-3.34-.62-6.66-1.41-9.92-2.35-2.95-.86-5.83-1.88-8.71-2.96s1.18.57-.53-.2c-.74-.33-1.47-.65-2.21-.99-1.75-.82-3.48-1.69-5.18-2.61-3.12-1.7-6.15-3.58-9.05-5.65-.52-.37-1.04-.74-1.55-1.13,1.85,1.41-.79-.71-1.13-1.01-1.33-1.17-2.6-2.39-3.8-3.69-.54-.59-1.04-1.22-1.58-1.81-.49-.6-.41-.49.23.32-.37-.51-.73-1.03-1.08-1.55-.85-1.3-1.6-2.65-2.27-4.06,1.07,2.26-.08-.4-.2-.81-.26-.87-.43-1.75-.62-2.64.48,2.16.07.8.1.19.06-1.24.04-2.44.18-3.67.68-5.67-5.48-11.11-10.87-10.87-6.47.29-10.15,4.8-10.87,10.87H.21Z"/><rect class="cls-3" x="949.94" width="415" height="415" rx="47.41" ry="47.41"/><g class="cls-1"><path class="cls-2" d="m1027.82,178.64l-11.32-14.35c-2.21-2.8-4.42-5.6-7.34-8.4-2.65-2.45-5.46-4.21-8.99-5.97-2.81-1.75-5.95-2.11-9.25-1.78-5.01-.02-9.19,1.01-13.43,3.78-3.79,2.43-7.58,4.85-11.98,8.32-2.13,1.68-4.09,3.56-5.89,5.59-4.3,4.86-7.27,10.61-8.19,16.24-.41,2.53-.45,4.97.05,7.41.51,6.98,2.78,12.57,5.93,17.46,3.43,5.25,7.57,10.49,10.72,15.39l1.11,1.4c11.82,16.79,20.49,28.68,34.19,45.13,5.09,6.46,10.09,12.79,14.95,19.01,6.26,8,17.99,10.42,30.13,6.48,2.24-.73,4.49-1.49,6.72-2.28,22.18-7.85,33.9-33.49,22.52-48.23l-5.23-6.77-44.69-58.43Z"/><path class="cls-2" d="m1199.3,43.32l-11.32-14.35c-1.69-2.15-3.39-4.3-5.41-6.45-1.25-1.33-2.81-2.35-4.4-3.33-2.32-1.42-4.32-2.93-6.97-4.25-2.81-1.76-5.51-2.46-9.25-1.78-4.57-.37-9.63,1.36-13.42,3.78-3.35,2.08-7.59,4.85-11.98,8.32-3.28,2.59-6.18,5.66-8.51,8.9-2.01,2.79-3.48,5.82-4.52,8.85-1.44,4.22-2.09,8.06-.99,11.49.51,6.98,2.78,12.57,5.93,17.46,3.43,5.25,7.13,10.84,10.72,15.39,15.69,21.69,29.89,40.58,46.18,61.23h0c12.32,15.61,41.82,9.22,55-12.04.94-1.52,1.87-3.04,2.79-4.56,6.56-10.88,6.61-22.81.45-30.85l-44.29-57.83Z"/><path class="cls-2" d="m968.33,362.48c22.27,36.38,69.92,43.48,108.85,40.68,36.39-2.61,72.73-13.96,104.74-31.33,68.4-37.13,118.79-97.52,149.23-168.68,16.59-38.78,27.05-80.34,32.82-122.06,1.95-14.12-9.37-29.11-23.82-30.19-14.94-1.12-28.1,8.76-30.19,23.82-2.28,16.49-5.3,32.87-9.23,49.05,1.34-5.49-.67,2.5-.79,2.94-.43,1.61-.87,3.22-1.32,4.82-1.12,4.01-2.29,8.01-3.53,11.98-2.46,7.94-5.15,15.82-8.09,23.6-6.01,15.94-13.16,31.31-21.05,46.4-2.22,4.24,3.19-5.44-.81,1.42-.83,1.43-1.65,2.87-2.49,4.29-2.1,3.56-4.27,7.08-6.5,10.57-4.68,7.32-9.65,14.45-14.91,21.37-4.72,6.22-9.67,12.27-14.85,18.12-1.35,1.52-2.72,3.02-4.1,4.52-.96,1.04-4.79,4.95-.83.95-3.15,3.19-6.36,6.32-9.64,9.37-11.95,11.09-24.82,21.17-38.48,30.07-1.7,1.11-3.43,2.18-5.15,3.28-4.54,2.9-.94.62,0,.06-3.5,2.06-7.06,4.02-10.65,5.91-7.53,3.96-15.25,7.55-23.13,10.75-7.12,2.9-14.37,5.34-21.69,7.68-7.37,2.35,3.19-.72-1.35.43-1.96.49-3.9,1.01-5.87,1.47-4.71,1.11-9.45,2.08-14.22,2.9-8.77,1.5-17.63,2.5-26.51,2.93-1.59.08-3.19.15-4.78.18,5.8-.1-2.64-.17-3.78-.23-4.42-.23-8.82-.67-13.19-1.35-1.98-.31-3.93-.79-5.9-1.1-1.88-.42-1.56-.32.95.28-1.52-.42-3.03-.88-4.53-1.37-3.68-1.23-7.26-2.72-10.74-4.45,5.61,2.78-.78-.67-1.65-1.28-1.86-1.3-3.55-2.78-5.31-4.21,4.3,3.5,1.38,1.46.49.23-1.8-2.52-3.7-4.84-5.33-7.5-7.45-12.18-27.98-13.32-38.19-4.5-12.25,10.59-12.49,25.14-4.5,38.19h0Z"/></g><path class="cls-4" d="m1059.3,236.41l-.68,52.24-.34,28.07v5.33c-.34,2.13-.34,3.91,0,6.04.34,2.49,1.02,4.98,1.02,7.11.34,2.84.68,5.33,1.7,7.82l1.02,2.13c0,.71.34,1.42.68,2.13,2.05,3.2,3.75,5.33,6.48,7.11,5.12,2.49,10.92,3.2,17.4,1.78,3.75-.71,6.82-1.78,8.87-3.91,2.39-1.78,3.75-3.91,4.78-6.4,1.02-2.84,2.05-5.33,2.39-7.82.68-2.84,1.02-4.98,1.02-6.4v-3.55l.68-83.87.05-6.61c-15.84-3.53-31.04-9.46-44.84-17.9-.05,5.71-.12,11.31-.24,16.68Z"/><path class="cls-4" d="m1105.35,90.42v-11.13c0-2.17,0-4.34-.34-6.79-.34-2.17-1.02-4.07-2.05-6.25-.68-1.9-2.05-3.26-3.75-4.34-2.39-1.9-4.78-2.99-7.85-3.26-2.73-.27-5.46-.54-8.87-.54-1.65,0-3.3.16-4.92.45-3.89.7-7.48,2.33-10.05,4.67-1.15,1.05-2.09,2.21-2.77,3.56-2.39,3.53-3.41,7.06-3.75,10.59-.34,3.8-.34,7.87-.68,11.4v1.09c-.68,12.49-1.02,21.45-.68,34.48,0,5.01,0,9.92-.03,14.73-.03,6.19,4.67,11.77,11.96,14.47,1.35.5,2.71.98,4.07,1.45,13.57,4.62,28.85-3.22,28.97-14.57l.06-5.21.68-44.8Z"/><path class="cls-4" d="m1238.4,90.42v-11.13c0-1.67,0-3.33-.15-5.12-.1-1.1-.45-2.18-.85-3.25-.58-1.55-.96-3.03-1.73-4.66-.68-1.9-1.7-3.26-3.75-4.34-2.05-1.9-5.12-2.99-7.84-3.26-2.39-.27-5.46-.54-8.87-.54-2.55,0-5.09.38-7.43,1.04-2.01.57-3.86,1.47-5.5,2.53-2.28,1.47-4.04,3.06-4.81,5.12-2.39,3.53-3.41,7.06-3.75,10.59-.34,3.8-.68,7.87-.68,11.4-.68,16.29-1.02,30.68-1.02,46.7h0c0,12.11,16.52,20.19,30.84,15,1.02-.37,2.04-.75,3.05-1.13,7.24-2.73,11.77-8.41,11.86-14.58l.64-44.36Z"/><path class="cls-4" d="m1192,234.09v9.78l-.34,44.78-.34,28.07c0,2.13,0,3.91-.68,5.33,0,2.13,0,3.91.68,6.04.34,2.49.68,4.98.68,7.11.34,2.84.68,5.33,1.71,7.82.34.71.68,1.42.68,2.13.34.71.68,1.42,1.36,2.13,1.36,3.2,3.41,5.33,6.14,7.11,5.12,2.49,10.92,3.2,17.4,1.78,3.75-.71,6.82-1.78,8.87-3.91,2.39-1.78,3.75-3.91,4.78-6.4,1.02-2.84,2.05-5.33,2.39-7.82.68-2.84,1.02-4.98,1.02-6.4v-3.55l1.26-113.48c-14.46,8.18-29.71,14.82-45.61,19.49Z"/><path class="cls-4" d="m1007.54,155.87c-3.08,25.79,17.03,47.17,36.69,60.52,18.38,12.48,40.04,20.77,61.9,24.54,46.72,8.06,93.59-1.8,134.99-24.34,22.56-12.28,43.24-28.2,61.75-45.98,6.26-6.01,6.5-17.45,0-23.42-6.72-6.17-16.74-6.41-23.42,0-7.31,7.02-14.94,13.71-22.92,19.97,2.71-2.12-1.26.94-1.48,1.11-.81.61-1.63,1.21-2.45,1.81-2.05,1.5-4.12,2.96-6.21,4.4-4.18,2.87-8.43,5.62-12.77,8.23-8.89,5.36-18.1,10-27.57,14.24-2.66,1.19,3.58-1.4-.92.37-.94.37-1.87.75-2.81,1.11-2.35.91-4.71,1.78-7.09,2.6-5,1.73-10.07,3.27-15.19,4.59-4.61,1.19-9.25,2.22-13.94,3.06-1.22.22-2.44.42-3.66.61-.85.13-4.16.56-.75.14-2.71.34-5.42.62-8.14.84-9.9.79-19.86.76-29.75-.14-1.23-.11-2.46-.25-3.7-.38-3.27-.33-.68-.06-.02.03-2.45-.34-4.89-.74-7.32-1.19-5.09-.95-10.14-2.14-15.12-3.59-4.5-1.3-8.89-2.87-13.27-4.51-4.41-1.66,1.8.86-.81-.31-1.12-.5-2.25-.99-3.36-1.51-2.67-1.24-5.31-2.57-7.9-3.98-4.76-2.59-9.37-5.46-13.78-8.6-.79-.56-1.58-1.13-2.35-1.72,2.81,2.14-1.2-1.08-1.72-1.54-2.02-1.78-3.96-3.65-5.79-5.62-.83-.89-1.58-1.86-2.41-2.75-.74-.91-.63-.74.35.49-.57-.77-1.12-1.56-1.64-2.36-1.3-1.98-2.44-4.04-3.46-6.18,1.63,3.45-.12-.62-.31-1.23-.4-1.32-.65-2.67-.95-4.01.73,3.29.11,1.22.15.3.09-1.88.06-3.71.28-5.6,1.03-8.63-8.35-16.93-16.56-16.56-9.85.44-15.46,7.31-16.56,16.56h0Z"/></g></svg>